<svg width="0" height="0" class="hidden">
  <symbol xmlns="http://www.w3.org/2000/svg" viewBox="0 0 24 24" id="icon-help">
    <path d="M12 6a3.939 3.939 0 0 0-3.934 3.934h2C10.066 8.867 10.934 8 12 8s1.934.867 1.934 1.934c0 .598-.481 1.032-1.216 1.626a9.208 9.208 0 0 0-.691.599c-.998.997-1.027 2.056-1.027 2.174V15h2l-.001-.633c.001-.016.033-.386.441-.793.15-.15.339-.3.535-.458.779-.631 1.958-1.584 1.958-3.182A3.937 3.937 0 0 0 12 6zm-1 10h2v2h-2z"></path>
    <path d="M12 2C6.486 2 2 6.486 2 12s4.486 10 10 10 10-4.486 10-10S17.514 2 12 2zm0 18c-4.411 0-8-3.589-8-8s3.589-8 8-8 8 3.589 8 8-3.589 8-8 8z"></path>
  </symbol>
  <symbol xmlns="http://www.w3.org/2000/svg" viewBox="0 0 24 24" id="icon-close">
    <path d="m16.192 6.344-4.243 4.242-4.242-4.242-1.414 1.414L10.535 12l-4.242 4.242 1.414 1.414 4.242-4.242 4.243 4.242 1.414-1.414L13.364 12l4.242-4.242z"></path>
  </symbol>
  <symbol xmlns="http://www.w3.org/2000/svg" viewBox="0 0 24 24" id="icon-search">
    <path d="M10 18a7.952 7.952 0 0 0 4.897-1.688l4.396 4.396 1.414-1.414-4.396-4.396A7.952 7.952 0 0 0 18 10c0-4.411-3.589-8-8-8s-8 3.589-8 8 3.589 8 8 8zm0-14c3.309 0 6 2.691 6 6s-2.691 6-6 6-6-2.691-6-6 2.691-6 6-6z"></path>
  </symbol>
  <symbol xmlns="http://www.w3.org/2000/svg" viewBox="0 0 24 24" id="icon-menu">
    <path d="M4 6h16v2H4zm0 5h16v2H4zm0 5h16v2H4z"></path>
  </symbol>
  <symbol version="1.1" id="icon-arrow" xmlns="http://www.w3.org/2000/svg" xmlns:xlink="http://www.w3.org/1999/xlink" x="0px" y="0px" xml:space="preserve" viewBox="0 0 612 792">
    <g>
      <path d="M446.3,417.18c-3.38,0-5.35,0-7.31,0c-107.35,0-214.7-0.02-322.05,0.04c-5.82,0-11.25-0.71-15.99-4.44
		c-7.12-5.6-10.1-14.87-7.35-23.25c2.83-8.61,10.38-14.41,19.35-14.81c2-0.09,4-0.05,6-0.05c106.68,0,213.36,0,320.05,0
		c1.96,0,3.92,0,7.21,0c-2.05-2.19-3.29-3.59-4.61-4.92c-35.82-35.85-71.67-71.68-107.48-107.53c-8.92-8.93-10.77-18.21-5.61-27.49
		c6.34-11.4,21.01-14.53,31.38-6.64c1.85,1.41,3.53,3.05,5.17,4.7c48.34,48.32,96.66,96.66,144.99,145
		c12.49,12.5,12.49,23.74-0.01,36.25c-48.56,48.58-97.11,97.15-145.68,145.71c-8.95,8.94-18.17,10.82-27.48,5.69
		c-11.41-6.28-14.6-21-6.74-31.36c1.5-1.98,3.28-3.77,5.04-5.54c35.46-35.5,70.95-70.98,106.42-106.47
		C442.88,420.82,444.1,419.49,446.3,417.18z"></path>
    </g>
  </symbol>
</svg>